<svg id="Layer_1" data-name="Layer 1" xmlns="http://www.w3.org/2000/svg" xmlns:xlink="http://www.w3.org/1999/xlink" viewBox="0 0 40 50"><defs><style>.cls-1{fill:url(#linear-gradient);}.cls-2{fill:url(#linear-gradient-2);}</style><linearGradient id="linear-gradient" x1="2.35" y1="-1.66" x2="40.25" y2="48.36" gradientUnits="userSpaceOnUse"><stop offset="0" stop-color="#bd8bf4"/><stop offset="0.11" stop-color="#b486f1"/><stop offset="0.28" stop-color="#9a78e8"/><stop offset="0.51" stop-color="#7161da"/><stop offset="0.77" stop-color="#3842c6"/><stop offset="0.99" stop-color="#0024b3"/></linearGradient><linearGradient id="linear-gradient-2" x1="-9.07" y1="6.99" x2="28.83" y2="57.02" xlink:href="#linear-gradient"/></defs><path class="cls-1" d="M20,0h0A20,20,0,0,0,0,20V30H0A10,10,0,0,0,10,20,10,10,0,0,1,20,10h0A10,10,0,0,1,30,20,10,10,0,0,0,40,30V20A20,20,0,0,0,20,0Z"/><path class="cls-2" d="M35.29,35.74l-5.81-3.36L20,37.86l-9.48-5.48L4.71,35.74A9.39,9.39,0,0,0,0,43.89V50l10.52-6.08L20,49.38l9.48-5.46L40,50V43.89A9.39,9.39,0,0,0,35.29,35.74Z"/></svg>