<svg id="Layer_1" data-name="Layer 1" xmlns="http://www.w3.org/2000/svg" viewBox="0 0 824.8 205"><defs><style>.cls-1,.cls-2{fill:#456371;}.cls-1{fill-rule:evenodd;}</style></defs><path class="cls-1" d="M730,28.52v148H824.8v-148Zm74.33,43.73H783.62v66.62h-12.4V72.25H750.47V60.7h53.9Z"/><path class="cls-1" d="M682.63,75.14a12.34,12.34,0,0,0-9-3.32H661.4V96.31h12.19a12.47,12.47,0,0,0,9-3.26Q686,89.79,686,84.12A12,12,0,0,0,682.63,75.14Z"/><path class="cls-1" d="M627,28.52v148h94.76v-148Zm58.72,110.35-14-31.55H661.4v31.55H649V60.81h24.59a29.09,29.09,0,0,1,13.21,2.83,20.93,20.93,0,0,1,8.71,8,23.2,23.2,0,0,1,3.1,12.14,23.72,23.72,0,0,1-4,13.63,20.84,20.84,0,0,1-10.7,8.18l15.72,33.26Z"/><path class="cls-1" d="M571.26,70.75q-5.67,0-8.61,3t-2.94,8.82v34.44c0,3.77,1,6.7,3,8.76s4.84,3.1,8.55,3.1,6.65-1,8.61-3.1,2.94-5,2.94-8.76V82.62q0-5.78-2.94-8.82T571.26,70.75Z"/><path class="cls-1" d="M523.88,28.52v148h94.77v-148Zm71.33,88.54a24.59,24.59,0,0,1-2.88,12.13,19.5,19.5,0,0,1-8.24,8,30.88,30.88,0,0,1-25.61,0,19.37,19.37,0,0,1-8.28-8,24.48,24.48,0,0,1-2.89-12.13V82.62a24.45,24.45,0,0,1,2.89-12.19,19.53,19.53,0,0,1,8.28-7.91,30.88,30.88,0,0,1,25.61,0,19.66,19.66,0,0,1,8.24,7.91,24.56,24.56,0,0,1,2.88,12.19Z"/><path class="cls-1" d="M476.47,75.14a12.34,12.34,0,0,0-9-3.32H455.24V96.31h12.19a12.47,12.47,0,0,0,9-3.26q3.38-3.26,3.37-8.93A12,12,0,0,0,476.47,75.14Z"/><path class="cls-1" d="M420.8,28.52v148h94.77v-148Zm58.72,110.35-14-31.55H455.24v31.55h-12.4V60.81h24.59a29.07,29.07,0,0,1,13.21,2.83,21,21,0,0,1,8.72,8,23.29,23.29,0,0,1,3.1,12.14,23.66,23.66,0,0,1-4,13.63,20.86,20.86,0,0,1-10.69,8.18l15.72,33.26Z"/><path class="cls-1" d="M317.72,28.52v148h94.77v-148ZM389,116.84q0,10.69-6.2,16.9t-17.65,6.2q-11.33,0-17.59-6.2t-6.25-16.9v-56h12.4v55.92c0,3.85,1,6.87,2.89,9s4.77,3.26,8.55,3.26,6.54-1.08,8.51-3.26,2.94-5.19,2.94-9V60.81H389Z"/><path class="cls-1" d="M214.64,28.52v148h94.77v-148Zm59.41,110.35-15.93-34.75H248.5v34.75H236V60.81H248.5V92.89h9.73l15.4-32.08H287.1L269.24,98.24l18.82,40.63Z"/><path class="cls-2" d="M82,0h0A82,82,0,0,0,0,82v41H0A41,41,0,0,0,41,82,41,41,0,0,1,82,41h0a41,41,0,0,1,41,41,41,41,0,0,0,41,41V82A82,82,0,0,0,82,0Z"/><path class="cls-2" d="M144.7,146.52l-23.82-13.76L82,155.21,43.12,132.76,19.3,146.52A38.59,38.59,0,0,0,0,179.94V205l43.15-24.91L82,202.46l38.85-22.37L164,205V179.94A38.59,38.59,0,0,0,144.7,146.52Z"/></svg>